<svg width="1024" height="1024" viewBox="0 0 1024 1024" fill="none" xmlns="http://www.w3.org/2000/svg">
  <rect x="64" y="64" width="896" height="896" rx="180" fill="#071426"/>
  <path d="M258 610c53 68 292 113 524 22v125c-238 79-468 27-524-42V610z" fill="#F8FAFC"/>
  <path d="M258 748c88 78 367 102 524 18v118c-214 72-452 35-524-46V748z" fill="#F8FAFC"/>
  <path d="M298 536c31 34 111 58 217 62h205c71-10 113-29 128-58 11 40-8 80-55 106-86 50-344 47-456-3-59-26-79-64-39-107z" fill="#F8FAFC"/>
  <path d="M404 180h304v480c0 32-26 58-58 58H462c-32 0-58-26-58-58V180z" fill="#F8FAFC"/>
  <path d="M404 180l38 36 38-36 38 36 38-36 38 36 38-36 38 36 38-36v90H404v-90z" fill="#F8FAFC"/>
  <rect x="470" y="350" width="180" height="25" rx="12.5" fill="#071426"/>
  <rect x="470" y="445" width="180" height="25" rx="12.5" fill="#071426"/>
  <rect x="470" y="540" width="150" height="25" rx="12.5" fill="#071426"/>
  <circle cx="760" cy="760" r="118" fill="#22C55E"/>
  <path d="M696 756l47 48 81-98" stroke="white" stroke-width="34" stroke-linecap="round" stroke-linejoin="round"/>
</svg>
